<svg width="13" height="15" viewBox="0 0 13 15" fill="none" xmlns="http://www.w3.org/2000/svg">
<path fill-rule="evenodd" clip-rule="evenodd" d="M3.61111 1.9H9.38889V0.5H10.8333V1.9H11.5556C11.9386 1.9 12.306 2.0475 12.5769 2.31005C12.8478 2.5726 13 2.9287 13 3.3V13.1C13 13.4713 12.8478 13.8274 12.5769 14.0899C12.306 14.3525 11.9386 14.5 11.5556 14.5H1.44444C1.06135 14.5 0.693954 14.3525 0.423068 14.0899C0.152182 13.8274 0 13.4713 0 13.1V3.3C0 2.9287 0.152182 2.5726 0.423068 2.31005C0.693954 2.0475 1.06135 1.9 1.44444 1.9H2.16667V0.5H3.61111V1.9ZM1.44444 4.7V13.1H11.5556V4.7H1.44444ZM2.88889 6.8H4.33333V8.2H2.88889V6.8ZM5.77778 6.8H7.22222V8.2H5.77778V6.8ZM8.66667 6.8H10.1111V8.2H8.66667V6.8ZM8.66667 9.6H10.1111V11H8.66667V9.6ZM5.77778 9.6H7.22222V11H5.77778V9.6ZM2.88889 9.6H4.33333V11H2.88889V9.6Z" fill="#999999"/>
</svg>
