<svg width="33" height="33" viewBox="0 0 33 33" fill="none" xmlns="http://www.w3.org/2000/svg">
<rect x="0.358521" y="0.861328" width="32.4415" height="32" rx="10" fill="#5D60FF"/>
<path d="M24.7137 9.74071C25.1171 8.62489 24.0358 7.54362 22.92 7.94793L9.28274 12.8799C8.16319 13.2852 8.02779 14.8128 9.05771 15.4094L13.4108 17.9296L17.298 14.0425C17.4741 13.8724 17.7099 13.7782 17.9548 13.7804C18.1996 13.7825 18.4338 13.8807 18.6069 14.0538C18.78 14.227 18.8782 14.4611 18.8803 14.706C18.8825 14.9508 18.7884 15.1867 18.6183 15.3628L14.7311 19.2499L17.2522 23.603C17.8479 24.6329 19.3755 24.4966 19.7808 23.378L24.7137 9.74071Z" fill="white"/>
</svg>
